<svg width="15" height="14" viewBox="0 0 15 14" fill="none" xmlns="http://www.w3.org/2000/svg">
<path d="M14 7.85C14.4694 7.85 14.85 7.46944 14.85 7C14.85 6.53056 14.4694 6.15 14 6.15L14 7.85ZM0.398959 6.39896C0.0670138 6.7309 0.0670137 7.26909 0.398959 7.60104L5.80833 13.0104C6.14027 13.3424 6.67846 13.3424 7.01041 13.0104C7.34235 12.6785 7.34235 12.1403 7.01041 11.8083L2.20208 7L7.01041 2.19167C7.34235 1.85973 7.34235 1.32154 7.01041 0.989591C6.67846 0.657646 6.14027 0.657646 5.80833 0.989591L0.398959 6.39896ZM14 6.15L1 6.15L1 7.85L14 7.85L14 6.15Z" fill="#494949"/>
</svg>
