<svg width="23" height="23" viewBox="0 0 23 23" fill="none" xmlns="http://www.w3.org/2000/svg">
<path d="M10.1292 5.43555L6.64045 1.40852C6.23826 0.944456 5.50092 0.946519 5.03376 1.41471L2.16483 4.2888C1.31095 5.14371 1.06654 6.41317 1.56051 7.43102C4.51156 13.5411 9.43931 18.4758 15.5453 21.4354C16.5621 21.9294 17.8305 21.685 18.6844 20.83L21.5802 17.9291C22.0494 17.4599 22.0504 16.7185 21.5822 16.3163L17.5397 12.8461C17.1169 12.4831 16.46 12.5305 16.0362 12.9554L14.6295 14.3641C14.5575 14.4396 14.4627 14.4893 14.3597 14.5057C14.2567 14.5221 14.1511 14.5043 14.0593 14.4549C11.76 13.1308 9.85279 11.2211 8.53176 8.92014C8.48229 8.82811 8.46438 8.72238 8.48077 8.61918C8.49716 8.51598 8.54696 8.42101 8.62251 8.34883L10.025 6.9453C10.4499 6.51836 10.4963 5.85836 10.1292 5.43452V5.43555Z" stroke="black" stroke-width="2.0625" stroke-linecap="round" stroke-linejoin="round"/>
</svg>
