<svg width="15" height="15" viewBox="0 0 15 15" fill="none" xmlns="http://www.w3.org/2000/svg">
<path d="M6.65699 7.19528L6.69236 7.23064L7.48136 8.01964L7.51671 8.055L7.48136 8.09036L5.02809 10.5436L5.12705 10.7795L6.65699 7.19528ZM6.65699 7.19528L6.62164 7.23065M6.65699 7.19528L6.62164 7.23065M6.62164 7.23065L4.16938 9.6839L3.93352 9.58497C3.9335 9.58496 3.93348 9.58495 3.93345 9.58494C3.45282 9.38109 2.91626 9.35073 2.4157 9.49905C1.91511 9.64738 1.48169 9.96518 1.1897 10.398C0.897705 10.8308 0.765322 11.3517 0.815231 11.8714C0.865139 12.3911 1.09423 12.8773 1.46326 13.2466C1.83228 13.616 2.31826 13.8455 2.83793 13.8958C3.35759 13.9462 3.8786 13.8143 4.31167 13.5226C4.74473 13.231 5.06291 12.7979 5.21166 12.2974C5.36041 11.797 5.33051 11.2604 5.12711 10.7797L6.62164 7.23065ZM12.8448 0.253559L13.3865 0.465673L11.8977 1.95262L11.8772 1.97305L11.8847 2.00097L12.0517 2.62297L12.0592 2.65089L12.0871 2.65832L12.7111 2.82432L12.739 2.83172L12.7593 2.81137L14.2463 1.32538L14.4584 1.86723L14.4585 1.8673C14.6527 2.3613 14.7051 2.89972 14.6098 3.42191C14.5145 3.9441 14.2752 4.42929 13.919 4.82281C13.5628 5.21633 13.1037 5.50255 12.5935 5.64921C12.0834 5.79586 11.5424 5.79714 11.0316 5.65288L11.0034 5.64491L10.9826 5.66564L8.62864 8.01964L8.59329 8.055L8.62864 8.09036L9.60964 9.07136L9.645 9.10671L9.68036 9.07136L10.625 8.12673L14.1336 11.6393L14.1336 11.6393L14.1344 11.6401C14.3045 11.8028 14.4403 11.9978 14.5339 12.2137C14.6276 12.4296 14.6772 12.662 14.6798 12.8974C14.6823 13.1327 14.6379 13.3661 14.5491 13.584C14.4602 13.8019 14.3287 13.9999 14.1623 14.1663C13.9959 14.3327 13.7979 14.4642 13.58 14.5531C13.3621 14.6419 13.1287 14.6863 12.8934 14.6838C12.658 14.6812 12.4256 14.6316 12.2097 14.5379C11.9938 14.4443 11.7988 14.3085 11.6361 14.1384L11.6361 14.1384L11.6354 14.1377L8.12669 10.625L9.07136 9.68036L9.10671 9.645L9.07136 9.60964L8.09036 8.62864L8.055 8.59329L8.01964 8.62864L5.94164 10.7066L5.92027 10.728L5.92926 10.7569C6.12911 11.3981 6.10829 12.0878 5.87013 12.7158C5.63198 13.3439 5.19023 13.8739 4.61545 14.2214C4.04066 14.5689 3.36601 14.7137 2.69925 14.6328C2.03249 14.5518 1.4121 14.2498 0.937168 13.7748C0.462236 13.2999 0.160168 12.6795 0.0792157 12.0127C-0.00173713 11.346 0.143096 10.6713 0.490579 10.0966C0.838062 9.52177 1.36815 9.08002 1.99616 8.84186C2.62418 8.60371 3.31389 8.58289 3.95512 8.78274L3.98398 8.79173L4.00536 8.77036L6.08336 6.69236L6.1187 6.65701L6.08337 6.62166L2.92237 3.45866L2.88693 3.42319L2.85156 3.45873L2.05335 4.26075L0.0667678 1.73994L1.73997 0.0667426L4.26382 2.05247L3.46464 2.85164L3.42931 2.88698L3.46462 2.92233L6.62162 6.08333L6.65698 6.11873L6.69236 6.08336L9.04636 3.72936L9.06709 3.70863L9.05912 3.68041C8.91486 3.16958 8.91614 2.6286 9.06279 2.11845C9.20945 1.6083 9.49567 1.14925 9.88919 0.793013C10.2827 0.436779 10.7679 0.197524 11.2901 0.102208C11.8123 0.00689143 12.3507 0.0593015 12.8447 0.253533L12.8448 0.253559ZM1.11454 1.76875L1.08335 1.80013L1.1107 1.83491L2.0827 3.07091L2.11752 3.11519L2.15736 3.07536L3.07236 2.16036L3.11215 2.12057L3.06795 2.08573L1.83095 1.11073L1.79595 1.08314L1.76454 1.11475L1.11454 1.76875ZM9.85346 3.67229L9.85371 3.6729L9.94815 3.90414L7.23064 6.62164L7.19529 6.657L7.23064 6.69236L8.01964 7.48136L8.05497 7.51669L8.09033 7.48138L10.8104 4.76526L11.0417 4.85354C11.0418 4.85357 11.0419 4.8536 11.0419 4.85362C11.3614 4.97896 11.7068 5.02371 12.0477 4.9839C12.3886 4.94408 12.7145 4.82091 12.9966 4.62526C13.2786 4.4296 13.5081 4.1675 13.6648 3.8621C13.8215 3.55669 13.9005 3.2174 13.895 2.87419L13.8931 2.75621L13.8096 2.83964L12.9681 3.68123L11.4408 3.27217L11.0308 1.74493L11.8724 0.903355L11.9555 0.820224L11.8379 0.818009C11.4942 0.811531 11.1541 0.889963 10.8479 1.04635C10.5417 1.20274 10.2788 1.43226 10.0826 1.71456C9.88628 1.99687 9.76269 2.32323 9.72273 2.66473C9.68277 3.00622 9.72767 3.3523 9.85346 3.67229ZM10.6604 9.23864L10.625 9.20329L10.5896 9.23864L9.23864 10.5896L9.20329 10.625L9.23864 10.6604L10.0276 11.4494L10.063 11.4847L10.0984 11.4494L11.4494 10.0984L11.4847 10.063L11.4494 10.0276L10.6604 9.23864ZM13.5994 13.5993L13.5994 13.5993C13.7877 13.4107 13.8935 13.1551 13.8935 12.8885C13.8935 12.6219 13.7877 12.3663 13.5994 12.1777L13.5994 12.1776L12.0584 10.6366L12.023 10.6013L11.9876 10.6366L10.6366 11.9876L10.6013 12.023L10.6366 12.0584L12.1776 13.5993C12.1776 13.5993 12.1776 13.5994 12.1776 13.5994C12.271 13.6927 12.3818 13.7668 12.5038 13.8174C12.6257 13.8679 12.7565 13.8939 12.8885 13.8939C13.0205 13.8939 13.1513 13.8679 13.2732 13.8174C13.3952 13.7668 13.506 13.6927 13.5994 13.5993Z" fill="#212121" stroke="white" stroke-width="0.1"/>
</svg>
