<svg width="79" height="168" viewBox="0 0 79 168" fill="none" xmlns="http://www.w3.org/2000/svg">
<path d="M39.8242 91.7611H57.8002C60.4459 91.7627 63.0659 91.2427 65.5105 90.231C67.9551 89.2193 70.1762 87.7356 72.047 85.8649C73.9178 83.9941 75.4014 81.7729 76.4132 79.3283C77.4249 76.8837 77.9448 74.2637 77.9432 71.6181V46.2051H50.2783C48.9052 46.2042 47.5453 46.4739 46.2766 46.999C45.0078 47.524 43.855 48.294 42.8841 49.2649C41.9132 50.2359 41.1431 51.3887 40.6181 52.6574C40.0931 53.9262 39.8233 55.286 39.8242 56.6591V91.7611Z" fill="#3EA3DC"/>
<path d="M31.1971 46.2051H10.9692C9.59605 46.204 8.23616 46.4737 6.96735 46.9987C5.69854 47.5237 4.54566 48.2937 3.57471 49.2647C2.60376 50.2356 1.83377 51.3884 1.30878 52.6573C0.78379 53.9261 0.514088 55.286 0.51514 56.6591V116.111C0.514088 117.484 0.78379 118.844 1.30878 120.113C1.83377 121.382 2.60376 122.535 3.57471 123.505C4.54566 124.476 5.69854 125.246 6.96735 125.771C8.23616 126.296 9.59605 126.566 10.9692 126.565H25.9692C26.6557 126.566 27.3356 126.431 27.97 126.168C28.6044 125.906 29.1809 125.521 29.6664 125.035C30.1519 124.55 30.5368 123.973 30.7993 123.339C31.0618 122.705 31.1967 122.025 31.1962 121.338L31.1971 46.2051Z" fill="#FFCC00"/>
<path d="M61.2002 101.238H39.7822V121.381C39.7818 122.067 39.9168 122.747 40.1794 123.382C40.442 124.016 40.8271 124.592 41.3126 125.078C41.7982 125.563 42.3747 125.948 43.0092 126.211C43.6436 126.473 44.3236 126.608 45.0102 126.608H67.8302C69.1531 126.608 70.4633 126.349 71.6857 125.843C72.9081 125.337 74.0188 124.595 74.9542 123.66C75.8897 122.724 76.6315 121.613 77.1374 120.391C77.6432 119.169 77.9031 117.858 77.9022 116.536V102.343H77.9452V92.2285C76.1233 95.0041 73.6379 97.2814 70.7141 98.8545C67.7903 100.428 64.5203 101.247 61.2002 101.238Z" fill="#86BC25"/>
<path d="M4.72199 134.426C4.94691 134.646 5.12349 134.912 5.24054 135.204C5.3576 135.497 5.41258 135.811 5.40198 136.126C5.4165 136.435 5.36315 136.743 5.24567 137.03C5.12819 137.316 4.94944 137.573 4.72199 137.783C4.23611 138.23 3.5972 138.474 2.93696 138.464C2.61509 138.478 2.29369 138.426 1.9936 138.308C1.6935 138.191 1.42142 138.012 1.19495 137.783C0.970773 137.57 0.794232 137.313 0.677007 137.027C0.559782 136.741 0.504554 136.434 0.514959 136.126C0.504358 135.811 0.559339 135.497 0.676397 135.204C0.793455 134.912 0.970028 134.646 1.19495 134.426C1.4215 134.197 1.69363 134.018 1.99372 133.901C2.29381 133.783 2.61516 133.731 2.93696 133.746C3.26598 133.723 3.59604 133.772 3.90424 133.889C4.21244 134.007 4.49146 134.19 4.72199 134.426Z" fill="#575756"/>
<path d="M5.4451 140.119H0.600098V160.687H5.4451V140.119Z" fill="#575756"/>
<path d="M24.1428 136.083C26.0128 137.483 26.9058 139.525 26.9058 142.33C26.9058 145.22 25.9725 147.387 24.1058 148.83C21.9408 150.368 19.3209 151.131 16.6688 150.997H13.6098V160.686H8.63184V134.001H16.3238C19.7228 134.001 22.3158 134.723 24.1428 136.083ZM20.3608 146.155C20.8564 145.658 21.2355 145.057 21.4706 144.395C21.7058 143.734 21.7913 143.028 21.7208 142.33C21.7208 139.23 19.9368 137.698 16.3208 137.698H13.6438V147.298H16.3208C17.7582 147.386 19.1829 146.983 20.3608 146.155Z" fill="#575756"/>
<path d="M40.9297 139.868L40.0798 144.542C39.4977 144.387 38.8968 144.316 38.2947 144.329C37.7665 144.343 37.2465 144.463 36.7655 144.682C36.2845 144.902 35.8524 145.215 35.4948 145.604C34.9696 146.099 34.5545 146.699 34.2763 147.366C33.9981 148.032 33.863 148.749 33.8798 149.471V160.69H29.0298V140.121H33.2368L33.7037 144.03C34.0775 142.754 34.7983 141.606 35.7858 140.716C36.6577 139.961 37.7765 139.552 38.9297 139.568C39.6053 139.596 40.2758 139.696 40.9297 139.868Z" fill="#575756"/>
<path d="M58.479 149.638C58.479 146.451 57.714 143.986 56.184 142.202C55.3712 141.297 54.3648 140.585 53.2395 140.122C52.1142 139.659 50.8989 139.455 49.684 139.525C47.9964 139.488 46.3369 139.962 44.924 140.885C43.5758 141.859 42.518 143.181 41.864 144.71C41.1258 146.442 40.7638 148.31 40.802 150.192C40.6408 152.96 41.52 155.688 43.267 157.841C44.1643 158.799 45.262 159.546 46.4815 160.03C47.7011 160.514 49.0124 160.723 50.322 160.641C53.0249 160.647 55.6434 159.699 57.716 157.964L57.163 154.012C56.6977 154.446 56.2007 154.843 55.676 155.202C54.896 155.752 54.0547 156.208 53.169 156.562C52.3668 156.858 51.5168 157.002 50.662 156.987C49.4107 157.039 48.1895 156.596 47.262 155.754C46.2805 154.588 45.7391 153.115 45.732 151.59H58.268C58.3851 150.946 58.4556 150.293 58.479 149.638ZM53.679 148.491H45.817C45.8008 147.017 46.2143 145.57 47.007 144.326C47.3296 143.903 47.7484 143.563 48.2287 143.334C48.7091 143.105 49.2371 142.994 49.769 143.009C52.361 143.009 53.678 144.751 53.678 148.278L53.679 148.491Z" fill="#575756"/>
<path d="M76.1572 142.325C77.493 144.676 78.1273 147.36 77.9852 150.06C78.0294 151.93 77.7119 153.792 77.0502 155.542C76.5148 157.02 75.5718 158.317 74.3302 159.282C73.1044 160.196 71.6087 160.674 70.0802 160.642C69.1303 160.687 68.1829 160.511 67.3127 160.128C66.4425 159.744 65.6734 159.164 65.0662 158.432V166.506L60.2222 167.271V140.071H64.4712L64.7262 142.536C65.4275 141.584 66.3451 140.812 67.4032 140.284C68.3906 139.782 69.4825 139.52 70.5902 139.519C71.6808 139.471 72.7654 139.703 73.7402 140.195C74.715 140.686 75.5472 141.42 76.1572 142.325ZM72.8852 150.102C73.0172 148.295 72.6958 146.483 71.9502 144.832C71.6722 144.325 71.2587 143.906 70.7559 143.62C70.2531 143.335 69.6809 143.195 69.1032 143.217C68.2962 143.222 67.5102 143.474 66.8512 143.94C66.1061 144.468 65.483 145.15 65.0242 145.94V154.949C65.3986 155.585 65.933 156.112 66.5742 156.477C67.2154 156.843 67.9412 157.034 68.6792 157.032C71.5222 156.991 72.8862 154.696 72.8862 150.107L72.8852 150.102Z" fill="#575756"/>
<path d="M0.515137 10.8383V0.694336H1.7641V9.74535H6.48511V10.8373L0.515137 10.8383Z" fill="#575756"/>
<path d="M8.78613 10.8383V0.694336H14.9111V1.78635H9.99512V5.21935H14.5601V6.31134H9.99512V9.74434H14.9891V10.8363L8.78613 10.8383Z" fill="#575756"/>
<path d="M17.993 10.8383H16.7061L20.451 0.694336H21.739L25.4841 10.8383H24.197L21.1541 2.29434H21.076L17.993 10.8383ZM18.4611 6.85834H23.65V7.95035H18.4611V6.85834Z" fill="#575756"/>
<path d="M27.4741 10.8387V0.69469H30.9071C31.5795 0.664166 32.2492 0.79803 32.8582 1.08469C33.3404 1.32094 33.7361 1.703 33.9891 2.1767C34.2286 2.6756 34.3488 3.22335 34.3401 3.77669C34.3488 4.33003 34.2286 4.8778 33.9891 5.3767C33.7361 5.8504 33.3404 6.23244 32.8582 6.46869C32.2492 6.75535 31.5795 6.88922 30.9071 6.85869H28.1371V5.7667H30.8681C31.322 5.78273 31.7741 5.70301 32.1951 5.5327C32.508 5.39876 32.7684 5.16583 32.9362 4.86969C33.0999 4.54338 33.1802 4.18163 33.1701 3.8167C33.1802 3.45177 33.0999 3.09 32.9362 2.76369C32.7707 2.45688 32.5109 2.21145 32.1951 2.06369C31.7741 1.89336 31.322 1.81363 30.8681 1.8297H28.7221V10.8807H27.4741V10.8387ZM32.2341 6.2737L34.7341 10.8387H33.2911L30.8331 6.2737H32.2341Z" fill="#575756"/>
<path d="M44.8743 0.655273V10.7993H43.7043L38.1643 2.84027H38.0473V10.7993H36.7983V0.655273H37.9683L43.5083 8.65527H43.6253V0.655273H44.8743Z" fill="#575756"/>
<path d="M7.36932 16.9707H8.61737V23.6807C8.63548 24.3412 8.45916 24.9925 8.11035 25.5537C7.78699 26.1041 7.31301 26.5507 6.74432 26.8407C6.10388 27.1641 5.39363 27.3249 4.67633 27.3087C3.95903 27.3249 3.24879 27.1641 2.60834 26.8407C2.03965 26.5507 1.56573 26.1041 1.24237 25.5537C0.911092 24.985 0.736154 24.3388 0.735352 23.6807V16.9707H1.98438V23.6027C1.98135 24.0632 2.08826 24.5178 2.29633 24.9287C2.51541 25.3124 2.84039 25.6248 3.23236 25.8287C3.6774 26.0592 4.17582 26.1669 4.67633 26.1407C5.17512 26.1478 5.66898 26.0411 6.12036 25.8287C6.50393 25.6133 6.8261 25.3035 7.05634 24.9287C7.28232 24.5246 7.39042 24.0652 7.36835 23.6027V16.9707H7.36932Z" fill="#575756"/>
<path d="M19.5423 16.9707V27.1147H18.3723L12.8323 19.1557H12.7153V27.1147H11.4663V16.9707H12.6363L18.1763 24.9707H18.2933V16.9707H19.5423Z" fill="#575756"/>
<path d="M22.4292 27.1528V17.0088H23.6772V26.0598H28.3982V27.1518L22.4292 27.1528Z" fill="#575756"/>
<path d="M31.9492 16.9707V27.1147H30.7012V16.9707H31.9492Z" fill="#575756"/>
<path d="M34.8359 16.9707H36.3179L39.751 25.3977H39.868L43.301 16.9707H44.7839V27.1147H43.652V19.3897H43.535L40.3749 27.1147H39.283L36.123 19.3897H36.006V27.1147H34.874V16.9707H34.8359Z" fill="#575756"/>
<path d="M48.9203 16.9707V27.1147H47.6724V16.9707H48.9203Z" fill="#575756"/>
<path d="M51.2612 18.0627V16.9707H58.8692V18.0627H55.6692V27.1137H54.4212V18.0627H51.2612Z" fill="#575756"/>
<path d="M61.21 27.1528V17.0088H67.335V18.1008H62.4189V21.5338H66.9839V22.6258H62.4189V26.0588H67.413V27.1508L61.21 27.1528Z" fill="#575756"/>
<path d="M73.1483 27.1537H70.0273V17.0097H73.3044C74.1911 16.9793 75.0689 17.1953 75.8404 17.6337C76.544 18.0375 77.1035 18.6516 77.4404 19.3897C77.8383 20.2293 78.0257 21.1533 77.9864 22.0817C78.0021 23.0206 77.8159 23.9519 77.4404 24.8127C77.0999 25.5609 76.5244 26.1774 75.8014 26.5687C74.9699 26.9537 74.0646 27.1534 73.1483 27.1537ZM71.2364 26.0617H73.0703C73.789 26.0918 74.5027 25.9303 75.1384 25.5937C75.6868 25.28 76.1235 24.8028 76.3874 24.2287C76.6692 23.5494 76.8022 22.8177 76.7773 22.0827C76.8025 21.3603 76.6694 20.6412 76.3874 19.9757C76.1386 19.4038 75.715 18.9256 75.1774 18.6097C74.5666 18.2818 73.8802 18.1204 73.1873 18.1417H71.2364V26.0617Z" fill="#575756"/>
<path d="M2.05442 40.2451L0.724876 35.8815H1.42942L2.3726 39.2224H2.41806L3.34988 35.8815H4.06578L4.98624 39.211H5.03169L5.97488 35.8815H6.67942L5.34988 40.2451H4.69078L3.73624 36.8928H3.66806L2.71351 40.2451H2.05442ZM7.56578 40.2451V35.8815H8.23624V40.2451H7.56578ZM7.90669 35.1542C7.77601 35.1542 7.66332 35.1097 7.56863 35.0207C7.47582 34.9317 7.42942 34.8247 7.42942 34.6997C7.42942 34.5747 7.47582 34.4677 7.56863 34.3786C7.66332 34.2896 7.77601 34.2451 7.90669 34.2451C8.03738 34.2451 8.14912 34.2896 8.24192 34.3786C8.33662 34.4677 8.38397 34.5747 8.38397 34.6997C8.38397 34.8247 8.33662 34.9317 8.24192 35.0207C8.14912 35.1097 8.03738 35.1542 7.90669 35.1542ZM11.3619 35.8815V36.4497H9.10059V35.8815H11.3619ZM9.75968 34.836H10.4301V38.9951C10.4301 39.1845 10.4576 39.3266 10.5125 39.4213C10.5693 39.5141 10.6413 39.5766 10.7284 39.6088C10.8174 39.6391 10.9112 39.6542 11.0097 39.6542C11.0835 39.6542 11.1441 39.6504 11.1915 39.6428C11.2388 39.6334 11.2767 39.6258 11.3051 39.6201L11.4415 40.2224C11.396 40.2394 11.3326 40.2565 11.2512 40.2735C11.1697 40.2925 11.0665 40.3019 10.9415 40.3019C10.7521 40.3019 10.5665 40.2612 10.3847 40.1798C10.2048 40.0983 10.0551 39.9743 9.93581 39.8076C9.81839 39.641 9.75968 39.4307 9.75968 39.1769V34.836ZM13.1347 37.6201V40.2451H12.4642V34.4269H13.1347V36.5633H13.1915C13.2938 36.3379 13.4472 36.1589 13.6517 36.0264C13.8582 35.8919 14.1328 35.8247 14.4756 35.8247C14.7729 35.8247 15.0334 35.8843 15.2568 36.0036C15.4803 36.1211 15.6536 36.3019 15.7767 36.5463C15.9017 36.7887 15.9642 37.0974 15.9642 37.4724V40.2451H15.2938V37.5178C15.2938 37.1713 15.2038 36.9033 15.0239 36.7139C14.8459 36.5226 14.5987 36.4269 14.2824 36.4269C14.0627 36.4269 13.8657 36.4733 13.6915 36.5661C13.5191 36.6589 13.3828 36.7944 13.2824 36.9724C13.1839 37.1504 13.1347 37.3663 13.1347 37.6201Z" fill="#575756"/>
</svg>
