<svg width="24" height="24" viewBox="0 0 24 24" fill="none" xmlns="http://www.w3.org/2000/svg">
<path d="M19.5092 18.3102H4.57618C4.3056 18.3122 4.03912 18.2441 3.80259 18.1127C3.56606 17.9813 3.3675 17.791 3.22618 17.5602C3.08517 17.3331 3.00698 17.0727 2.9996 16.8054C2.99222 16.5382 3.05592 16.2738 3.18418 16.0392L4.83418 12.9932C4.85131 12.9627 4.86059 12.9283 4.86118 12.8932V9.04925C4.88098 7.16287 5.64808 5.36134 6.99424 4.03973C8.34041 2.71812 10.1558 1.98432 12.0422 1.99925C13.9286 1.98432 15.744 2.71812 17.0901 4.03973C18.4363 5.36134 19.2034 7.16287 19.2232 9.04925V12.8902C19.2235 12.9253 19.2328 12.9598 19.2502 12.9902L20.8992 16.0392C21.0276 16.2737 21.0915 16.5381 21.0843 16.8053C21.0771 17.0725 20.999 17.333 20.8582 17.5602C20.717 17.7909 20.5186 17.9811 20.2822 18.1125C20.0459 18.2439 19.7796 18.312 19.5092 18.3102ZM12.0422 3.32425C10.5103 3.31198 9.03609 3.90784 7.94295 4.9811C6.84982 6.05436 6.22702 7.51739 6.21118 9.04925V12.8902C6.21068 13.1438 6.1471 13.3933 6.02618 13.6162L4.37618 16.6612C4.35755 16.6948 4.34827 16.7327 4.34933 16.7711C4.35038 16.8094 4.36173 16.8468 4.38218 16.8792C4.40239 16.9124 4.43093 16.9398 4.46495 16.9585C4.49898 16.9773 4.53733 16.9869 4.57618 16.9862H19.5092C19.548 16.9869 19.5864 16.9773 19.6204 16.9585C19.6544 16.9398 19.683 16.9124 19.7032 16.8792C19.7237 16.8466 19.7351 16.8091 19.7362 16.7706C19.7372 16.732 19.7279 16.6939 19.7092 16.6602L18.0592 13.6152C17.9381 13.3927 17.8746 13.1435 17.8742 12.8902V9.04925C17.8583 7.51722 17.2354 6.05404 16.1421 4.98074C15.0487 3.90745 13.5742 3.31172 12.0422 3.32425Z" fill="#12131A"/>
<path d="M12.0428 21.3446C11.0393 21.3435 10.0772 20.9444 9.36758 20.2348C8.65799 19.5252 8.25887 18.5631 8.25781 17.5596H9.75781C9.75861 18.1653 9.9996 18.7461 10.428 19.1744C10.8563 19.6028 11.437 19.8438 12.0428 19.8446C12.6486 19.8438 13.2293 19.6028 13.6577 19.1744C14.086 18.7461 14.327 18.1653 14.3278 17.5596H15.8278C15.8268 18.5631 15.4276 19.5252 14.718 20.2348C14.0084 20.9444 13.0463 21.3435 12.0428 21.3446Z" fill="#12131A"/>
<path d="M18 11C20.7614 11 23 8.76142 23 6C23 3.23858 20.7614 1 18 1C15.2386 1 13 3.23858 13 6C13 8.76142 15.2386 11 18 11Z" fill="#0077FF"/>
<path d="M18 10.5C20.4853 10.5 22.5 8.48528 22.5 6C22.5 3.51472 20.4853 1.5 18 1.5C15.5147 1.5 13.5 3.51472 13.5 6C13.5 8.48528 15.5147 10.5 18 10.5Z" stroke="#FDFDFD"/>
</svg>
