<svg width="376" height="226" viewBox="0 0 376 226" fill="none" xmlns="http://www.w3.org/2000/svg">
<path d="M376 0H0V190H376V0Z" fill="url(#paint0_linear_172_2125)"/>
<path d="M172.441 137.933C176.953 139.26 179.895 148.85 174.243 150.611C171.115 151.602 166.319 148.682 167.841 145.102C167.893 145.009 167.974 144.934 168.071 144.89C168.169 144.846 168.278 144.834 168.382 144.857C172.109 145.457 174.887 148.272 172.712 151.999C171.718 153.576 170.218 154.769 168.458 155.382C166.697 155.995 164.781 155.993 163.022 155.375C162.809 155.289 163.025 154.966 163.175 154.995C166.397 155.563 169.943 154.849 171.799 151.91C172.159 151.405 172.406 150.828 172.524 150.219C172.642 149.61 172.627 148.982 172.481 148.379C172.28 147.724 171.887 147.144 171.353 146.715C170.916 146.355 169.196 145.326 168.617 145.61C167.474 146.118 169.091 148.389 169.65 148.874C170.194 149.365 170.841 149.729 171.544 149.938C172.247 150.147 172.988 150.197 173.712 150.084C176.017 149.559 176.531 147.006 176.341 144.966C176.087 142.232 174.768 139.542 172.15 138.387C171.918 138.294 172.222 137.888 172.415 137.944L172.441 137.933Z" fill="#0070FF"/>
<path d="M53.4074 84.4807C50.8981 82.4961 46.8918 81.1471 43.7242 82.0999C41.2704 82.8342 38.9414 85.6357 41.2123 87.8366C42.1062 88.6939 45.6202 90.1137 46.6218 88.8359C47.3269 87.9451 46.4856 86.9041 45.6664 86.4222C43.2778 84.9933 39.7993 86.7157 38.8847 89.1396C37.5202 92.7838 41.2371 95.6768 44.1928 96.9034C44.3875 96.982 44.1913 97.3342 44.0392 97.2835C38.7875 95.7333 35.042 88.7734 41.4251 85.895C43.1492 85.1247 45.404 84.9896 46.8662 86.3892C47.6879 87.185 48.1071 88.3898 47.1849 89.2575C45.7038 90.6544 42.4129 89.6699 41.0499 88.6123C40.6857 88.3389 40.3814 87.9937 40.156 87.598C39.9305 87.2023 39.7886 86.7646 39.739 86.3119C39.6894 85.8593 39.7332 85.4012 39.8676 84.9661C40.0021 84.531 40.2243 84.1281 40.5207 83.7823C43.6062 79.7226 50.3897 81.2985 53.6088 84.2492C53.72 84.2942 53.5501 84.5814 53.4352 84.4919L53.4074 84.4807Z" fill="#0070FF"/>
<path d="M5.5824 128.533C8.56757 130.914 9.30753 138.159 5.05751 139.602C1.44143 140.838 -3.7598 138.121 -1.08105 134.081C-1.05092 134.035 -1.01 133.998 -0.961955 133.972C-0.913908 133.946 -0.860228 133.933 -0.805711 133.933C3.09557 134.528 2.59486 139.157 0.735002 141.598C-2.14342 145.386 -6.42683 143.601 -8.63009 140.112C-8.70211 139.996 -8.53963 139.728 -8.42125 139.862C-6.39397 142.159 -3.28686 144.719 -0.427341 142.099C1.09837 140.699 2.2987 137.808 1.2284 135.866C0.972035 135.309 0.511516 134.872 -0.0579615 134.645C-1.30095 134.304 -1.61767 135.676 -1.27601 136.752C-0.734195 138.481 1.46379 139.207 3.09394 139.283C8.67697 139.533 7.88287 131.835 5.41261 128.766C5.34236 128.673 5.4583 128.439 5.5824 128.533Z" fill="#0070FF"/>
<path d="M95.6286 145.565C99.8401 146.673 107.09 153.528 102.632 158.101C100.256 160.539 94.1589 160.254 93.7589 156.199C93.7581 156.093 93.7987 155.99 93.8721 155.913C93.9454 155.836 94.0459 155.791 94.1522 155.786C104.407 154.429 107.679 171.638 96.8128 173.039C96.471 173.084 96.6713 172.615 96.8776 172.558C97.8543 172.345 98.7784 171.938 99.5957 171.362C100.413 170.786 101.107 170.053 101.638 169.206C102.168 168.358 102.524 167.413 102.684 166.426C102.844 165.439 102.806 164.43 102.571 163.459C102.251 161.654 101.436 159.973 100.218 158.604C99.2952 157.605 96.7374 155.687 95.2216 156.369C94.5297 156.694 94.8012 156.048 94.808 156.752C94.9013 157.206 95.1625 157.608 95.5395 157.878C96.333 158.535 97.3284 158.899 98.3585 158.909C100.475 159.01 102.62 157.892 102.919 155.629C103.605 151.128 98.9642 147.56 95.328 146.015C95.0777 145.914 95.4264 145.505 95.6323 145.556L95.6286 145.565Z" fill="#0070FF"/>
<path d="M4.19944 91.7779C4.19944 91.7779 4.62094 96.6075 8.54837 98.7659L12.1677 97.122C12.1677 97.122 9.50774 96.2846 7.53794 91.3364L4.19944 91.7779Z" fill="#455A64"/>
<path d="M126.794 155.104C126.794 155.104 127.206 159.93 131.143 162.092L134.707 160.426C134.707 160.426 132.047 159.588 130.086 154.644L126.794 155.104Z" fill="#455A64"/>
<path d="M38.8886 124.043C38.8886 124.043 43.1236 126.401 47.1176 124.337L47.7272 120.452C47.7272 120.452 45.5466 122.192 40.3455 121.051L38.8886 124.043Z" fill="#0070FF"/>
<path d="M129.077 120.09C129.077 120.09 133.312 122.448 137.302 120.393L137.921 116.512C137.921 116.512 135.735 118.239 130.53 117.107L129.077 120.09Z" fill="#0070FF"/>
<path d="M115.285 183.349C115.285 183.349 119.515 185.695 123.505 183.64L124.124 179.759C124.124 179.759 121.934 181.495 116.733 180.354L115.285 183.349Z" fill="#0070FF"/>
<path d="M62.7817 152.84C62.7817 152.84 63.1939 157.666 67.1306 159.828L70.7036 158.165C70.7036 158.165 67.4621 157.406 65.4645 152.446L62.7817 152.84Z" fill="#455A64"/>
<path d="M55.9411 156.957C55.9411 156.957 54.9516 161.701 58.1233 164.903L62.025 164.322C60.2011 162.414 59.0295 159.977 58.6787 157.362L55.9411 156.957Z" fill="#37474F"/>
<path d="M1.11626 105.338C0.958421 105.274 0.547248 105.159 0.139333 105.467L-3.68924 108.356C-4.10925 108.672 -4.10126 109.111 -4.07832 109.285C-4.05539 109.458 -3.94937 109.884 -3.46153 110.081L1.11435 111.93C1.60219 112.127 1.97401 111.894 2.11122 111.785C2.24843 111.676 2.55872 111.367 2.47675 110.847L1.72944 106.109C1.64983 105.604 1.27411 105.402 1.11626 105.338ZM1.49087 104.411C2.10586 104.659 2.59961 105.208 2.71723 105.953L3.46453 110.691C3.70674 112.227 2.18113 113.439 0.739742 112.857L-3.83613 111.008C-5.27752 110.426 -5.53251 108.494 -4.29156 107.557L-0.462983 104.668C0.139636 104.214 0.875878 104.162 1.49087 104.411Z" fill="#A2C74B"/>
<path d="M171.478 183.89C171.671 184.164 171.793 184.481 171.832 184.814C171.871 185.147 171.825 185.484 171.7 185.794C171.574 186.105 171.373 186.379 171.114 186.591C170.855 186.804 170.547 186.948 170.217 187.01L160.523 188.849C160.169 188.917 159.805 188.887 159.467 188.765C159.129 188.643 158.83 188.431 158.602 188.153C158.374 187.875 158.225 187.541 158.171 187.186C158.117 186.831 158.16 186.467 158.295 186.134L162.293 176.237C162.428 175.904 162.649 175.614 162.935 175.396C163.221 175.178 163.56 175.041 163.917 175C164.274 174.958 164.635 175.014 164.963 175.16C165.291 175.307 165.573 175.539 165.781 175.832L171.478 183.89Z" fill="#FDC500"/>
<path d="M51.6757 132.358L53.53 133.107C54.0218 133.306 54.4146 133.692 54.6218 134.18C54.8291 134.668 54.8339 135.219 54.6352 135.711L53.1368 139.42L49.428 137.921C48.9362 137.722 48.5435 137.337 48.3362 136.848C48.129 136.36 48.1242 135.809 48.3229 135.318L49.0721 133.463C49.2708 132.971 49.6567 132.579 50.145 132.371C50.6332 132.164 51.1838 132.159 51.6757 132.358V132.358Z" fill="#0070FF"/>
<path d="M28.9591 123.18C31.2634 124.111 33.8861 122.998 34.8171 120.693C35.7481 118.389 34.6348 115.766 32.3305 114.835C30.0262 113.904 27.4035 115.017 26.4725 117.322C25.5415 119.626 26.6548 122.249 28.9591 123.18Z" fill="white"/>
<path d="M29.1465 122.716C31.1947 123.544 33.5261 122.554 34.3536 120.506C35.1812 118.458 34.1916 116.126 32.1433 115.299C30.095 114.471 27.7637 115.461 26.9361 117.509C26.1086 119.557 27.0982 121.889 29.1465 122.716Z" stroke="#0070FF" stroke-dasharray="2 2"/>
<path d="M211.736 183.977C207.115 184.843 200.142 177.634 204.378 173.5C206.716 171.199 212.313 171.623 212.581 175.503C212.577 175.61 212.539 175.713 212.472 175.797C212.406 175.88 212.314 175.94 212.21 175.967C208.618 177.124 204.866 175.876 205.112 171.569C205.282 169.713 206.077 167.97 207.367 166.625C208.657 165.28 210.366 164.412 212.213 164.165C212.442 164.145 212.396 164.53 212.249 164.573C209.121 165.529 206.286 167.774 205.966 171.234C205.874 171.848 205.916 172.474 206.087 173.07C206.259 173.666 206.557 174.219 206.96 174.69C207.437 175.182 208.051 175.52 208.721 175.66C209.274 175.782 211.273 175.919 211.659 175.403C212.448 174.431 209.976 173.142 209.258 172.964C208.55 172.773 207.809 172.743 207.088 172.875C206.367 173.008 205.684 173.3 205.09 173.729C203.275 175.243 203.976 177.751 205.071 179.481C206.538 181.802 208.933 183.6 211.789 183.441C212.038 183.419 211.952 183.918 211.754 183.956L211.736 183.977Z" fill="#0070FF"/>
<path d="M342.037 177.584C345.173 178.213 349.354 177.597 351.743 175.311C353.596 173.543 354.4 169.991 351.378 169.06C350.193 168.702 346.418 169.032 346.105 170.625C345.882 171.738 347.103 172.284 348.052 172.342C350.828 172.531 353.146 169.418 352.861 166.844C352.422 162.978 347.798 162.087 344.609 162.336C344.399 162.354 344.414 161.951 344.573 161.927C349.955 160.925 356.45 165.426 352.07 170.887C350.883 172.355 348.936 173.499 346.998 172.916C345.905 172.579 344.985 171.696 345.412 170.505C346.098 168.588 349.477 167.972 351.171 168.296C351.619 168.374 352.047 168.544 352.427 168.794C352.808 169.044 353.133 169.369 353.383 169.75C353.632 170.131 353.801 170.559 353.879 171.008C353.956 171.456 353.941 171.916 353.834 172.359C352.927 177.375 346.169 179.05 341.962 177.882C341.843 177.892 341.864 177.559 342.007 177.587L342.037 177.584Z" fill="#0070FF"/>
<path d="M364.655 116.637C360.915 115.87 356.968 109.751 360.099 106.537C362.76 103.796 368.627 103.855 368.074 108.671C368.068 108.725 368.048 108.777 368.017 108.821C367.986 108.866 367.944 108.902 367.895 108.927C364.15 110.167 362.495 105.816 363.045 102.797C363.89 98.1169 368.516 97.763 372.062 99.8719C372.179 99.942 372.156 100.255 371.99 100.189C369.141 99.0632 365.212 98.1922 363.853 101.823C363.129 103.763 363.371 106.883 365.206 108.128C365.687 108.508 366.296 108.688 366.906 108.632C368.168 108.371 367.828 107.006 367.035 106.202C365.768 104.908 363.48 105.258 361.993 105.93C356.906 108.241 361.107 114.739 364.7 116.352C364.805 116.403 364.808 116.664 364.655 116.637Z" fill="#0070FF"/>
<path d="M382.565 148.753C382.565 148.753 379.998 144.642 375.519 144.501L373.041 147.608C373.041 147.608 375.79 147.147 379.791 150.661L382.565 148.753Z" fill="#455A64"/>
<path d="M244.611 147.967C244.611 147.967 242.054 143.855 237.566 143.715L235.147 146.817C235.147 146.817 237.897 146.356 241.887 149.871L244.611 147.967Z" fill="#455A64"/>
<path d="M337.02 135.75C337.02 135.75 332.177 135.571 329.555 139.222L330.775 142.96C330.775 142.96 331.928 140.42 337.08 139.077L337.02 135.75Z" fill="#0070FF"/>
<path d="M258.467 180.197C258.467 180.197 253.624 180.018 251.002 183.659L252.211 187.397C252.211 187.397 253.375 184.867 258.526 183.514L258.467 180.197Z" fill="#0070FF"/>
<path d="M242.047 117.582C242.047 117.582 237.215 117.412 234.593 121.054L235.802 124.792C235.802 124.792 236.965 122.251 242.117 120.908L242.047 117.582Z" fill="#0070FF"/>
<path d="M363.502 185.818C363.672 185.803 364.09 185.719 364.314 185.26L366.414 180.949C366.644 180.476 366.438 180.089 366.339 179.944C366.24 179.8 365.952 179.469 365.428 179.515L360.513 179.944C359.989 179.99 359.763 180.366 359.69 180.525C359.617 180.685 359.481 181.101 359.79 181.527L362.606 185.409C362.906 185.822 363.333 185.833 363.502 185.818ZM363.589 186.814C362.929 186.871 362.24 186.607 361.797 185.996L358.981 182.114C358.068 180.856 358.877 179.083 360.426 178.948L365.341 178.519C366.889 178.384 367.993 179.989 367.313 181.387L365.213 185.697C364.882 186.376 364.25 186.756 363.589 186.814Z" fill="#A2C74B"/>
<path d="M379.159 135.273C379.329 135.259 379.747 135.174 379.971 134.715L382.071 130.404C382.302 129.931 382.095 129.544 381.996 129.4C381.897 129.256 381.609 128.925 381.085 128.97L376.17 129.4C375.646 129.446 375.42 129.821 375.347 129.981C375.275 130.14 375.139 130.557 375.448 130.983L378.263 134.864C378.563 135.278 378.99 135.288 379.159 135.273ZM379.246 136.269C378.586 136.327 377.897 136.062 377.454 135.451L374.638 131.57C373.726 130.312 374.534 128.539 376.083 128.404L380.998 127.974C382.547 127.839 383.651 129.445 382.97 130.842L380.87 135.153C380.54 135.832 379.907 136.212 379.246 136.269Z" fill="#A2C74B"/>
<path d="M329.447 100.996C329.159 100.838 328.913 100.611 328.733 100.335C328.553 100.06 328.444 99.7438 328.415 99.4159C328.387 99.0879 328.44 98.7579 328.569 98.4552C328.698 98.1525 328.901 97.8865 329.158 97.6807L329.527 97.3844C329.81 97.1591 330.148 97.0146 330.507 96.9662C330.865 96.9178 331.229 96.9674 331.562 97.1098C331.894 97.2521 332.181 97.4818 332.393 97.7744C332.606 98.0671 332.734 98.4118 332.766 98.7718L332.812 99.2958C332.844 99.6564 332.777 100.019 332.618 100.344C332.46 100.67 332.216 100.946 331.913 101.144C331.61 101.342 331.259 101.454 330.898 101.468C330.536 101.482 330.177 101.398 329.86 101.224L329.447 100.996Z" fill="#FDC500"/>
<path d="M346.256 132.013C343.781 132.23 341.95 134.412 342.166 136.887C342.382 139.362 344.564 141.194 347.039 140.977C349.515 140.761 351.346 138.579 351.13 136.104C350.914 133.629 348.732 131.797 346.256 132.013Z" fill="white"/>
<path d="M346.3 132.511C344.1 132.704 342.472 134.643 342.664 136.843C342.857 139.044 344.796 140.672 346.996 140.479C349.197 140.287 350.825 138.348 350.632 136.147C350.44 133.947 348.501 132.319 346.3 132.511Z" stroke="#0070FF" stroke-width="0.999792" stroke-dasharray="2 2"/>
<g opacity="0.08">
<g opacity="0.08">
<g opacity="0.08">
<path opacity="0.08" d="M51.2006 166.06L47.6675 159.165C47.4782 158.837 47.2016 158.567 46.8683 158.386C46.5351 158.206 46.1582 158.121 45.7796 158.141L-11.4785 164.183C-11.8571 164.244 -12.2129 164.404 -12.5092 164.647C-12.8055 164.89 -13.0317 165.208 -13.1645 165.568L-15.5275 173.105" fill="#C8E3FF"/>
<path opacity="0.08" d="M51.2006 166.06L47.6675 159.165C47.4782 158.837 47.2016 158.567 46.8683 158.386C46.5351 158.206 46.1582 158.121 45.7796 158.141L-11.4785 164.183C-11.8571 164.244 -12.2129 164.404 -12.5092 164.647C-12.8055 164.89 -13.0317 165.208 -13.1645 165.568L-15.5275 173.105" stroke="#0064C8" stroke-width="5.017" stroke-miterlimit="10" stroke-linecap="round" stroke-linejoin="round"/>
</g>
<path opacity="0.5" d="M23.8766 225.965C44.4224 223.797 60.6425 217.912 60.1052 212.82C59.5679 207.729 42.4767 205.359 21.9309 207.527C1.38514 209.695 -14.835 215.581 -14.2977 220.672C-13.7604 225.763 3.33082 228.133 23.8766 225.965Z" fill="#B8CBCD"/>
<g opacity="0.08">
<path opacity="0.08" d="M53.2595 210.412C53.3299 211.099 53.1257 211.786 52.6914 212.323C52.2571 212.86 51.6281 213.203 50.9415 213.278L-4.80692 219.161C-5.49409 219.232 -6.18121 219.027 -6.71822 218.593C-7.25524 218.158 -7.59852 217.529 -7.67311 216.842L-11.4354 181.19C-11.5058 180.503 -11.3014 179.816 -10.8669 179.279C-10.4324 178.742 -9.80311 178.399 -9.11638 178.324L46.6321 172.441C47.3192 172.371 48.0064 172.575 48.5434 173.01C49.0804 173.444 49.4237 174.073 49.4983 174.76L53.2595 210.412Z" fill="#F6E89A"/>
<path opacity="0.08" d="M53.2595 210.412C53.3299 211.099 53.1257 211.786 52.6914 212.323C52.2571 212.86 51.6281 213.203 50.9415 213.278L-4.80692 219.161C-5.49409 219.232 -6.18121 219.027 -6.71822 218.593C-7.25524 218.158 -7.59852 217.529 -7.67311 216.842L-11.4354 181.19C-11.5058 180.503 -11.3014 179.816 -10.8669 179.279C-10.4324 178.742 -9.80311 178.399 -9.11638 178.324L46.6321 172.441C47.3192 172.371 48.0064 172.575 48.5434 173.01C49.0804 173.444 49.4237 174.073 49.4983 174.76L53.2595 210.412Z" stroke="#8D4520" stroke-width="5.017" stroke-miterlimit="10" stroke-linecap="round" stroke-linejoin="round"/>
</g>
<path opacity="0.08" d="M49.1939 190.522L-7.81152 196.538L-7.26434 201.723L49.7411 195.708L49.1939 190.522Z" fill="#E8C980"/>
<g opacity="0.08">
<path opacity="0.08" d="M-15.5654 173.105L-13.5132 192.552C-13.4369 193.238 -13.093 193.865 -12.5564 194.298C-12.0197 194.731 -11.3337 194.935 -10.6478 194.865L50.9333 188.366C51.62 188.291 52.2494 187.948 52.6838 187.411C53.1183 186.874 53.3227 186.187 53.2523 185.5L51.2008 166.06" fill="#C8E3FF"/>
<path opacity="0.08" d="M-15.5654 173.105L-13.5132 192.552C-13.4369 193.238 -13.093 193.865 -12.5564 194.298C-12.0197 194.731 -11.3337 194.935 -10.6478 194.865L50.9333 188.366C51.62 188.291 52.2494 187.948 52.6838 187.411C53.1183 186.874 53.3227 186.187 53.2523 185.5L51.2008 166.06" stroke="#0064C8" stroke-width="5.017" stroke-miterlimit="10" stroke-linecap="round" stroke-linejoin="round"/>
</g>
<path opacity="0.08" d="M-15.4287 174.401L51.3376 167.355" stroke="#0064C8" stroke-width="3.345" stroke-miterlimit="10" stroke-linecap="round" stroke-linejoin="round"/>
<path opacity="0.08" d="M21.521 163.948L13.0938 164.837L18.4978 216.047L26.925 215.157L21.521 163.948Z" fill="white" stroke="#0064C8" stroke-width="3.345" stroke-miterlimit="10" stroke-linecap="round" stroke-linejoin="round"/>
<path opacity="0.08" d="M32.4771 154.972C30.2026 157.785 16.9262 163.777 16.9262 163.777C16.9262 163.777 20.0168 149.546 22.2909 146.731C22.8321 146.062 23.4996 145.506 24.2556 145.096C25.0115 144.685 25.8409 144.427 26.6965 144.337C27.5521 144.246 28.417 144.325 29.242 144.569C30.0671 144.813 30.8359 145.217 31.5048 145.759C32.1736 146.3 32.7293 146.967 33.1401 147.723C33.551 148.479 33.8089 149.309 33.8992 150.164C33.9894 151.02 33.9103 151.885 33.6663 152.71C33.4223 153.535 33.0182 154.304 32.4771 154.972Z" fill="white" stroke="#0064C8" stroke-width="5.017" stroke-miterlimit="10" stroke-linecap="round" stroke-linejoin="round"/>
<path opacity="0.08" d="M8.81229 148.162C11.6245 150.436 17.6169 163.713 17.6169 163.713C17.6169 163.713 3.38157 160.619 0.57024 158.343C-0.118629 157.809 -0.693928 157.142 -1.12195 156.383C-1.54996 155.624 -1.82209 154.786 -1.92238 153.92C-2.02266 153.054 -1.94909 152.177 -1.70598 151.34C-1.46286 150.503 -1.05509 149.722 -0.506562 149.045C0.0419667 148.367 0.720219 147.806 1.48845 147.394C2.25668 146.982 3.09944 146.727 3.96734 146.645C4.83523 146.563 5.71081 146.655 6.54276 146.915C7.3747 147.176 8.14628 147.599 8.81229 148.162Z" fill="white" stroke="#0064C8" stroke-width="5.017" stroke-miterlimit="10" stroke-linecap="round" stroke-linejoin="round"/>
</g>
</g>
<g opacity="0.85">
<g opacity="0.85">
<g opacity="0.85">
<path opacity="0.85" d="M325.215 98.4787L320.987 90.2293C320.76 89.8359 320.428 89.513 320.029 89.2968C319.63 89.0805 319.178 88.9792 318.725 89.0042L250.216 96.2338C249.763 96.3053 249.338 96.496 248.983 96.7863C248.629 97.0765 248.358 97.4559 248.198 97.8854L245.371 106.904" fill="#CCE6FF"/>
<path opacity="0.85" d="M325.215 98.4787L320.987 90.2293C320.76 89.8359 320.428 89.513 320.029 89.2968C319.63 89.0805 319.178 88.9792 318.725 89.0042L250.216 96.2338C249.763 96.3053 249.338 96.496 248.983 96.7863C248.629 97.0765 248.358 97.4559 248.198 97.8854L245.371 106.904" stroke="#0064C8" stroke-width="6.00315" stroke-miterlimit="10" stroke-linecap="round" stroke-linejoin="round"/>
</g>
<path opacity="0.15" d="M292.52 170.158C317.104 167.564 336.512 160.522 335.869 154.43C335.226 148.338 314.776 145.503 290.192 148.097C265.608 150.691 246.2 157.733 246.843 163.825C247.486 169.917 267.936 172.752 292.52 170.158Z" fill="#257ACF"/>
<g opacity="0.85">
<path opacity="0.85" d="M327.678 151.548C327.762 152.37 327.518 153.192 326.999 153.834C326.479 154.477 325.726 154.888 324.905 154.977L258.2 162.017C257.378 162.101 256.556 161.856 255.913 161.336C255.27 160.817 254.86 160.063 254.77 159.242L250.269 116.583C250.184 115.761 250.429 114.938 250.949 114.296C251.469 113.653 252.222 113.242 253.044 113.153L319.749 106.114C320.571 106.029 321.393 106.274 322.036 106.794C322.679 107.314 323.089 108.067 323.178 108.889L327.678 151.548Z" fill="#CCE6FF"/>
<path opacity="0.85" d="M327.678 151.548C327.762 152.37 327.518 153.192 326.999 153.834C326.479 154.477 325.726 154.888 324.905 154.977L258.2 162.017C257.378 162.101 256.556 161.856 255.913 161.336C255.27 160.817 254.86 160.063 254.77 159.242L250.269 116.583C250.184 115.761 250.429 114.938 250.949 114.296C251.469 113.653 252.222 113.242 253.044 113.153L319.749 106.114C320.571 106.029 321.393 106.274 322.036 106.794C322.679 107.314 323.089 108.067 323.178 108.889L327.678 151.548Z" stroke="#0064C8" stroke-width="6.00315" stroke-miterlimit="10" stroke-linecap="round" stroke-linejoin="round"/>
</g>
<path opacity="0.85" d="M322.813 127.749L254.604 134.947L255.258 141.152L323.468 133.954L322.813 127.749Z" fill="#78BCFF"/>
<g opacity="0.85">
<path opacity="0.85" d="M245.326 106.909L247.782 130.177C247.871 130.998 248.282 131.751 248.925 132.27C249.567 132.79 250.389 133.034 251.211 132.949L324.895 125.174C325.717 125.085 326.47 124.674 326.99 124.031C327.51 123.388 327.754 122.566 327.67 121.744L325.215 98.4787" fill="#CCE6FF"/>
<path opacity="0.85" d="M245.326 106.909L247.782 130.177C247.871 130.998 248.282 131.751 248.925 132.27C249.567 132.79 250.389 133.034 251.211 132.949L324.895 125.174C325.717 125.085 326.47 124.674 326.99 124.031C327.51 123.388 327.754 122.566 327.67 121.744L325.215 98.4787" stroke="#0064C8" stroke-width="6.00315" stroke-miterlimit="10" stroke-linecap="round" stroke-linejoin="round"/>
</g>
<path opacity="0.85" d="M245.489 108.46L325.378 100.03" stroke="#0064C8" stroke-width="4.0021" stroke-miterlimit="10" stroke-linecap="round" stroke-linejoin="round"/>
<path opacity="0.85" d="M289.701 95.952L279.618 97.0161L286.084 158.29L296.168 157.226L289.701 95.952Z" fill="white" stroke="#0064C8" stroke-width="4.0021" stroke-miterlimit="10" stroke-linecap="round" stroke-linejoin="round"/>
<path opacity="0.85" d="M302.811 85.2123C300.089 88.5771 284.203 95.7477 284.203 95.7477C284.203 95.7477 287.901 78.72 290.623 75.3511C291.93 73.7348 293.826 72.7043 295.894 72.4861C297.962 72.2679 300.031 72.88 301.647 74.1877C303.263 75.4953 304.294 77.3915 304.512 79.459C304.73 81.5265 304.118 83.596 302.811 85.2123Z" fill="white" stroke="#0064C8" stroke-width="6.00315" stroke-miterlimit="10" stroke-linecap="round" stroke-linejoin="round"/>
<path opacity="0.85" d="M274.494 77.0581C277.859 79.7796 285.03 95.6655 285.03 95.6655C285.03 95.6655 268.002 91.9682 264.633 89.2461C263.833 88.5986 263.168 87.7998 262.676 86.8954C262.185 85.9909 261.876 84.9985 261.768 83.9748C261.66 82.951 261.755 81.9161 262.047 80.9289C262.339 79.9418 262.822 79.0218 263.47 78.2215C264.117 77.4212 264.916 76.7563 265.82 76.2648C266.725 75.7732 267.717 75.4646 268.741 75.3566C269.765 75.2485 270.8 75.3432 271.787 75.6351C272.774 75.9271 273.694 76.4106 274.494 77.0581Z" fill="white" stroke="#0064C8" stroke-width="6.00315" stroke-miterlimit="10" stroke-linecap="round" stroke-linejoin="round"/>
</g>
</g>
<path opacity="0.15" d="M328 174.229C341.807 174.229 353 177.003 353 180.429C353 183.855 341.807 186.629 328 186.629C314.193 186.629 303 183.846 303 180.429C303 177.012 314.193 174.229 328 174.229Z" fill="#0064C8"/>
<path d="M351.679 160.067C349.179 172.585 340.921 177.235 327.65 177.235C314.379 177.235 305.763 172.652 303.622 160.067C301.426 147.162 309.295 131 327.65 131C346.005 131 354.395 146.462 351.679 160.067Z" fill="#D3E9FE" stroke="#2379D0" stroke-width="3" stroke-miterlimit="10" stroke-linecap="round" stroke-linejoin="round"/>
<path d="M327.651 183.133C340.922 183.133 351.68 172.782 351.68 160.013C351.68 147.244 340.922 136.893 327.651 136.893C314.38 136.893 303.622 147.244 303.622 160.013C303.622 172.782 314.38 183.133 327.651 183.133Z" fill="#D3E9FE"/>
<path d="M327.651 131V136.745" stroke="#2379D0" stroke-width="3" stroke-miterlimit="10" stroke-linecap="round" stroke-linejoin="round"/>
<path d="M321.095 132.748V138.196" stroke="#2379D0" stroke-width="3" stroke-miterlimit="10" stroke-linecap="round" stroke-linejoin="round"/>
<path d="M314.539 134.846V140.74" stroke="#2379D0" stroke-width="3" stroke-miterlimit="10" stroke-linecap="round" stroke-linejoin="round"/>
<path d="M334.465 132.748V138.344" stroke="#2379D0" stroke-width="3" stroke-miterlimit="10" stroke-linecap="round" stroke-linejoin="round"/>
<path d="M341.021 134.846V140.74" stroke="#2379D0" stroke-width="3" stroke-miterlimit="10" stroke-linecap="round" stroke-linejoin="round"/>
<path d="M327.651 173.214C323.372 173.282 319.216 171.78 315.969 168.992C312.723 166.204 310.611 162.322 310.032 158.082C309.956 158.723 309.917 159.368 309.916 160.014C309.916 169.438 317.856 177.079 327.65 177.079C337.444 177.079 345.385 169.439 345.385 160.014C345.384 159.368 345.345 158.723 345.269 158.082C344.69 162.322 342.578 166.203 339.332 168.992C336.086 171.78 331.93 173.282 327.651 173.214Z" fill="#0070FF"/>
<path d="M339.119 147.666C340.912 149.186 342.354 151.078 343.345 153.209C344.336 155.341 344.853 157.662 344.86 160.013C344.86 169.159 337.16 176.573 327.65 176.573C318.14 176.573 310.44 169.159 310.44 160.013C310.446 157.775 310.915 155.562 311.817 153.514C312.72 151.466 314.036 149.627 315.684 148.113" stroke="#2379D0" stroke-width="2" stroke-miterlimit="10" stroke-linecap="round" stroke-linejoin="round"/>
<path d="M328.306 167.912V150.345L322.799 154.279" stroke="#2379D0" stroke-width="3" stroke-miterlimit="10" stroke-linecap="round" stroke-linejoin="round"/>
<path d="M323.946 168.095H331.986" stroke="#2379D0" stroke-width="3" stroke-miterlimit="10" stroke-linecap="round" stroke-linejoin="round"/>
<path d="M327.651 141.403C340.13 141.403 350.386 150.558 351.564 162.268C351.638 161.525 351.679 160.774 351.679 160.013C351.679 147.245 340.921 136.893 327.65 136.893C314.379 136.893 303.623 147.244 303.623 160.013C303.624 160.766 303.662 161.519 303.738 162.268C304.916 150.556 315.17 141.403 327.651 141.403Z" fill="white"/>
<path d="M327.651 183.133C340.922 183.133 351.68 172.782 351.68 160.013C351.68 147.244 340.922 136.893 327.651 136.893C314.38 136.893 303.622 147.244 303.622 160.013C303.622 172.782 314.38 183.133 327.651 183.133Z" stroke="#2379D0" stroke-width="3" stroke-miterlimit="10" stroke-linecap="round" stroke-linejoin="round"/>
<defs>
<linearGradient id="paint0_linear_172_2125" x1="329.752" y1="-36.48" x2="290.927" y2="206.45" gradientUnits="userSpaceOnUse">
<stop stop-color="white"/>
<stop offset="1" stop-color="#F8FCFF"/>
</linearGradient>
</defs>
</svg>
