<svg width="34" height="34" viewBox="0 0 34 34" fill="none" xmlns="http://www.w3.org/2000/svg">
<path d="M30.0993 14.582H28.9917V14.5249H16.6167V20.0249H24.3875C23.2538 23.2266 20.2075 25.5249 16.6167 25.5249C12.0606 25.5249 8.3667 21.831 8.3667 17.2749C8.3667 12.7188 12.0606 9.0249 16.6167 9.0249C18.7198 9.0249 20.6331 9.81828 22.0899 11.1142L25.9791 7.22503C23.5233 4.93634 20.2385 3.5249 16.6167 3.5249C9.02326 3.5249 2.8667 9.68147 2.8667 17.2749C2.8667 24.8683 9.02326 31.0249 16.6167 31.0249C24.2101 31.0249 30.3667 24.8683 30.3667 17.2749C30.3667 16.353 30.2718 15.453 30.0993 14.582Z" fill="#FFC107"/>
<path d="M4.45215 10.875L8.96971 14.188C10.1921 11.1617 13.1525 9.0249 16.6168 9.0249C18.7198 9.0249 20.6331 9.81828 22.09 11.1142L25.9791 7.22503C23.5234 4.93634 20.2385 3.5249 16.6168 3.5249C11.3354 3.5249 6.75527 6.50659 4.45215 10.875Z" fill="#FF3D00"/>
<path d="M16.6164 31.0249C20.1681 31.0249 23.3952 29.6657 25.8351 27.4554L21.5795 23.8543C20.1526 24.9394 18.4091 25.5263 16.6164 25.5249C13.0401 25.5249 10.0034 23.2444 8.85936 20.062L4.37549 23.5167C6.65111 27.9696 11.2725 31.0249 16.6164 31.0249Z" fill="#4CAF50"/>
<path d="M30.0978 14.5815H28.9902V14.5244H16.6152V20.0244H24.386C23.8438 21.5482 22.8669 22.8797 21.5762 23.8545L21.5783 23.8531L25.8339 27.4542C25.5328 27.7279 30.3652 24.1494 30.3652 17.2744C30.3652 16.3525 30.2704 15.4525 30.0978 14.5815Z" fill="#1976D2"/>
</svg>
