<svg width="134" height="42" viewBox="0 0 134 42" fill="none" xmlns="http://www.w3.org/2000/svg">
<path d="M17.1191 19.6435H24.5002C25.5866 19.6438 26.6623 19.43 27.666 19.0144C28.6697 18.5987 29.5819 17.9894 30.3501 17.2213C31.1183 16.4531 31.7275 15.5411 32.1431 14.5374C32.5587 13.5336 32.7725 12.4579 32.7722 11.3715V0.979492H21.4192C20.2832 0.980022 19.1939 1.43154 18.3906 2.23483C17.5873 3.03812 17.1358 4.12747 17.1353 5.2635V19.6435H17.1191Z" fill="#3EA3DC"/>
<path d="M13.5762 0.979492H5.28223C4.1462 0.980022 3.05671 1.43154 2.25342 2.23483C1.45013 3.03812 0.998577 4.12747 0.998047 5.2635V29.6545C0.998577 30.7905 1.45013 31.8799 2.25342 32.6832C3.05671 33.4864 4.1462 33.938 5.28223 33.9385H11.4341C11.7156 33.9393 11.9946 33.8844 12.2549 33.7771C12.5151 33.6697 12.7514 33.5119 12.9504 33.3129C13.1495 33.1138 13.3074 32.8774 13.4148 32.6171C13.5222 32.3569 13.577 32.078 13.5762 31.7965V0.979492Z" fill="#FFCC00"/>
<path d="M25.8972 23.5474H17.1172V31.8194C17.1164 32.101 17.1715 32.3798 17.2788 32.6401C17.3862 32.9003 17.5439 33.1368 17.7429 33.3358C17.942 33.5349 18.1785 33.6926 18.4387 33.8C18.699 33.9074 18.9778 33.9622 19.2593 33.9614H28.6343C29.1777 33.9625 29.716 33.8562 30.2183 33.6488C30.7205 33.4413 31.177 33.1367 31.5613 32.7524C31.9456 32.3681 32.25 31.9117 32.4575 31.4095C32.665 30.9072 32.7713 30.3689 32.7703 29.8254V23.9924H32.7922V19.8564C32.0339 20.99 31.0083 21.9196 29.8059 22.5633C28.6035 23.207 27.2611 23.5449 25.8972 23.5474Z" fill="#86BC25"/>
<path d="M43.9917 1.65865C44.2632 1.92649 44.4766 2.24731 44.6189 2.60118C44.7611 2.95505 44.8292 3.3344 44.8186 3.71565C44.8271 4.09351 44.7582 4.46911 44.6159 4.81927C44.4737 5.16944 44.2613 5.48676 43.9917 5.75166C43.7051 6.02638 43.3654 6.2396 42.9934 6.37821C42.6214 6.51682 42.225 6.57788 41.8286 6.55765C41.4391 6.57115 41.0509 6.50681 40.6865 6.36842C40.3221 6.23002 39.9889 6.02034 39.7065 5.75166C39.4369 5.48676 39.2245 5.16944 39.0823 4.81927C38.94 4.46911 38.8711 4.09351 38.8796 3.71565C38.8711 3.33466 38.9399 2.95589 39.082 2.60231C39.2242 2.24873 39.4366 1.92769 39.7065 1.65865C39.9861 1.38474 40.3184 1.17026 40.6831 1.02813C41.0478 0.886 41.4374 0.81917 41.8286 0.831657C42.2264 0.815017 42.6234 0.879783 42.9953 1.02199C43.3673 1.16419 43.7064 1.38084 43.9917 1.65865Z" fill="#575756"/>
<path d="M44.8174 8.63672H38.9004V33.7697H44.8174V8.63672Z" fill="#575756"/>
<path d="M67.7466 3.69441C70.0156 5.39441 71.1396 7.93641 71.1396 11.3084C71.1396 14.8504 69.9936 17.5014 67.7246 19.2834C65.4556 21.0654 62.4245 21.9344 58.6245 21.9344H54.8916V33.7694H48.8047V1.14941H58.2227C62.2957 1.14941 65.4776 1.99741 67.7466 3.69441ZM63.1006 16.0174C64.2006 15.1054 64.7556 13.5364 64.7556 11.3304C64.7556 7.53041 62.5495 5.64642 58.1555 5.64642H54.8677V17.3744H58.1555C59.9104 17.4963 61.6546 17.0178 63.1016 16.0174H63.1006Z" fill="#575756"/>
<path d="M88.2335 8.31905L87.2155 14.046C86.509 13.8631 85.7823 13.7704 85.0525 13.77C83.7552 13.8182 82.5288 14.3741 81.6376 15.3181C80.9918 15.9223 80.4805 16.6558 80.137 17.4708C79.7934 18.2857 79.6253 19.1638 79.6436 20.048V33.771H73.7266V8.63705H78.8595L79.4115 13.4301C79.8788 11.8748 80.7583 10.4751 81.9565 9.37905C83.0216 8.45808 84.3876 7.95993 85.7955 7.97905C86.6195 7.98664 87.4389 8.10093 88.2335 8.31905Z" fill="#575756"/>
<path d="M109.7 20.2804C109.7 16.3994 108.767 13.3664 106.879 11.2024C105.88 10.0995 104.648 9.23389 103.271 8.66879C101.895 8.1037 100.41 7.85347 98.9246 7.93642C96.8621 7.89041 94.8347 8.47514 93.1135 9.61242C91.4435 10.7734 90.1467 12.3944 89.3805 14.2784C88.4867 16.4052 88.046 18.6948 88.0865 21.0014C88.0865 24.9464 89.1045 28.0644 91.1195 30.3334C93.1345 32.6024 95.9976 33.7484 99.7306 33.7484C103.042 33.7507 106.248 32.587 108.786 30.4614L108.13 25.6254C107.565 26.1549 106.963 26.6438 106.33 27.0884C105.386 27.7613 104.359 28.3101 103.276 28.7214C102.298 29.0824 101.263 29.262 100.222 29.2514C99.4619 29.2867 98.7028 29.1697 97.9889 28.9075C97.275 28.6453 96.6208 28.243 96.0646 27.7244C95.0259 26.7064 94.4109 25.0098 94.2196 22.6344H109.555C109.657 21.3834 109.7 20.5984 109.7 20.2804ZM103.825 18.8384H94.2165C94.2017 17.0289 94.7101 15.2537 95.6805 13.7264C96.0751 13.2064 96.59 12.79 97.181 12.5129C97.772 12.2358 98.4215 12.1062 99.0736 12.1354C102.255 12.1354 103.825 14.2774 103.825 18.5624V18.8384Z" fill="#575756"/>
<path d="M131.311 11.3091C132.795 13.5571 133.538 16.7171 133.538 20.7681C133.575 23.0588 133.195 25.337 132.414 27.4911C131.752 29.3034 130.599 30.8959 129.084 32.0911C127.584 33.2057 125.753 33.7878 123.884 33.7451C122.723 33.7968 121.566 33.583 120.5 33.12C119.434 32.6569 118.488 31.9569 117.733 31.0731V40.9371L111.816 41.8911V8.63709H116.991L117.309 11.6491C118.182 10.4873 119.306 9.53769 120.597 8.87109C121.8 8.25924 123.129 7.93959 124.478 7.93809C125.812 7.85668 127.144 8.12485 128.343 8.71607C129.541 9.3073 130.564 10.2011 131.311 11.3091ZM127.345 20.8321C127.345 17.8411 126.963 15.6991 126.199 14.3631C125.867 13.741 125.367 13.2245 124.756 12.8721C124.145 12.5196 123.447 12.3454 122.742 12.3691C121.747 12.3743 120.777 12.6853 119.963 13.2601C119.055 13.8957 118.295 14.7206 117.736 15.6781V26.6651C118.196 27.442 118.851 28.0855 119.636 28.5318C120.421 28.9782 121.309 29.2119 122.211 29.2101C125.648 29.2531 127.345 26.4321 127.345 20.8371V20.8321Z" fill="#575756"/>
</svg>
